# xmcd
#
# Track frame offsets:
#	150
#	25225
#	45675
#	69167
#	94242
#
# Disc length: 1528 seconds
#
# Revision: 0
# Processed by: cddbd v1.5.1PL0 Copyright (c) Steve Scherf et al.
# Submitted via: dBpowerAMP V4.0
#
DISCID=3805f605
DTITLE=BoA - MerryChri
DYEAR=2004
DGENRE=Jpop
TTITLE0=MerryChri
TTITLE1=MEGASTEP
TTITLE2=THE CHRISTMAS SONG
TTITLE3=MerryChri (TV Mix)
TTITLE4=MEGA STEP (TV Mix)
EXTD=
EXTT0=
EXTT1=
EXTT2=
EXTT3=
EXTT4=
PLAYORDER=
